# xmcd
#
# Track frame offsets:
#	150
#	10730
#	23495
#	32877
#	43247
#	53140
#	63570
#	73380
#	85460
#	98450
#	111390
#	123325
#
# Disc length: 1792 seconds
#
# Revision: 0
# Processed by: cddbd v1.5.2PL0 Copyright (c) Steve Scherf et al.
# Submitted via: dBpowerAMP V4.0
#
DISCID=a206fe0c
DTITLE=Gino and Geno - Numero 1
DYEAR=1900
DGENRE=Country
TTITLE0=Seu telegrama
TTITLE1=Beleza de MG
TTITLE2=Faz Quatro anos
TTITLE3=Preciso te esquecer
TTITLE4=Garota Manhosa
TTITLE5=De Goias e MG
TTITLE6=Sofre Voce,Menos Eu
TTITLE7=Romance da  Gaguinha
TTITLE8=Farda preta
TTITLE9=Chao Goiano
TTITLE10=Eu Nao passo Naquela Rua
TTITLE11=Paixao de Um Cigano
EXTD=Sertanejo
EXTT0=
EXTT1=
EXTT2=
EXTT3=
EXTT4=
EXTT5=
EXTT6=
EXTT7=
EXTT8=
EXTT9=
EXTT10=
EXTT11=
PLAYORDER=
